<?xml version="1.0" encoding="UTF-8"?>
<svg width="180px" height="164px" viewBox="0 0 180 164" version="1.1" xmlns="http://www.w3.org/2000/svg" xmlns:xlink="http://www.w3.org/1999/xlink">
    <title>bot-6</title>
    <defs>
        <path d="M154.87223,2.07168062e-16 C156.655267,-1.2037061e-16 157.30184,0.185651222 157.953691,0.534265408 C158.605543,0.882879593 159.11712,1.39445674 159.465735,2.04630859 C159.814349,2.69816044 160,3.34473292 160,5.1277704 L160,15 L160.144484,15.0015395 C161.723342,15.0199937 162.336148,15.2039993 162.953691,15.5342654 C163.605543,15.8828796 164.11712,16.3944567 164.465735,17.0463086 C164.814349,17.6981604 165,18.3447329 165,20.1277704 L165,39.8722296 C165,41.6552671 164.814349,42.3018396 164.465735,42.9536914 C164.11712,43.6055433 163.605543,44.1171204 162.953691,44.4657346 C162.317984,44.8057144 161.687299,44.9907037 160.002641,44.9996587 L160,54.8722296 C160,56.6552671 159.814349,57.3018396 159.465735,57.9536914 C159.11712,58.6055433 158.605543,59.1171204 157.953691,59.4657346 C157.30184,59.8143488 156.655267,60 154.87223,60 L129.12777,60 C127.344733,60 126.69816,59.8143488 126.046309,59.4657346 C125.394457,59.1171204 124.88288,58.6055433 124.534265,57.9536914 C124.185651,57.3018396 124,56.6552671 124,54.8722296 L124,5.1277704 C124,3.34473292 124.185651,2.69816044 124.534265,2.04630859 C124.88288,1.39445674 125.394457,0.882879593 126.046309,0.534265408 C126.69816,0.185651222 127.344733,1.2037061e-16 129.12777,-2.07168062e-16 L154.87223,2.07168062e-16 Z M30.8722296,7 C32.6552671,7 33.3018396,7.18565122 33.9536914,7.53426541 C34.6055433,7.88287959 35.1171204,8.39445674 35.4657346,9.04630859 C35.8143488,9.69816044 36,10.3447329 36,12.1277704 L36,47.8722296 C36,49.6552671 35.8143488,50.3018396 35.4657346,50.9536914 C35.1171204,51.6055433 34.6055433,52.1171204 33.9536914,52.4657346 C33.3018396,52.8143488 32.6552671,53 30.8722296,53 L5.1277704,53 C3.34473292,53 2.69816044,52.8143488 2.04630859,52.4657346 C1.39445674,52.1171204 0.882879593,51.6055433 0.534265408,50.9536914 C0.185651222,50.3018396 8.02470732e-17,49.6552671 -1.38112041e-16,47.8722296 L1.38112041e-16,28.1277704 C-8.02470732e-17,26.3447329 0.185651222,25.6981604 0.534265408,25.0463086 C0.882879593,24.3944567 1.39445674,23.8828796 2.04630859,23.5342654 C2.69816044,23.1856512 3.34473292,23 5.1277704,23 L10,23 L10,12.1277704 C10,10.3447329 10.1856512,9.69816044 10.5342654,9.04630859 C10.8828796,8.39445674 11.3944567,7.88287959 12.0463086,7.53426541 C12.6981604,7.18565122 13.3447329,7 15.1277704,7 L30.8722296,7 Z" id="path-1"></path>
        <path d="M10,0 L14,0 L14,31 L22,31 C23.1045695,31 24,31.8954305 24,33 L24,47 L0,47 L0,33 C-1.3527075e-16,31.8954305 0.8954305,31 2,31 L10,31 L10,0 Z" id="path-3"></path>
        <path d="M0,102 L0,68.8517092 C0,64.3169266 0.771119772,59.8151606 2.28038666,55.5389045 L19.7614455,12.0092379 C22.3014253,4.81262825 29.1035817,0 36.7352715,0 L93.2647285,0 C100.896418,0 107.698575,4.81262825 110.238555,12.0092379 L127.719613,55.5389045 C129.22888,59.8151606 130,64.3169266 130,68.8517092 L130,102 C130,111.941125 121.941125,120 112,120 L18,120 C8.0588745,120 0,111.941125 0,102 Z" id="path-5"></path>
    </defs>
    <g id="Intro" stroke="none" stroke-width="1" fill="none" fill-rule="evenodd">
        <g id="bot-6">
            <g id="Sides/Square-Assymetric" transform="translate(0.000000, 66.000000)">
                <g id="Ears" transform="translate(10.000000, 8.000000)">
                    <mask id="mask-2" fill="white">
                        <use xlink:href="#path-1"></use>
                    </mask>
                    <use fill="#0076DE" xlink:href="#path-1"></use>
                    <g id="Color/08-Cyan/300" mask="url(#mask-2)" fill="#4DD0E1">
                        <g transform="translate(-10.000000, -8.000000)">
                            <rect x="0" y="0" width="180" height="76"></rect>
                        </g>
                    </g>
                    <polygon id="Shadow" fill-opacity="0.1" fill="#000000" mask="url(#mask-2)" points="-10 39 170 39 170 68 -10 68"></polygon>
                    <circle id="Beep" fill-opacity="0.6" fill="#FFFFFF" mask="url(#mask-2)" cx="151" cy="12" r="5"></circle>
                    <circle id="Beep" fill-opacity="0.6" fill="#FFFFFF" mask="url(#mask-2)" cx="151" cy="28" r="5"></circle>
                </g>
            </g>
            <g id="Top/Antenna" transform="translate(41.000000, 0.000000)">
                <g id="Antenna" stroke-width="1" transform="translate(38.000000, 5.000000)">
                    <mask id="mask-4" fill="white">
                        <use xlink:href="#path-3"></use>
                    </mask>
                    <use fill="#E1E6E8" xlink:href="#path-3"></use>
                    <g id="Color/19-Blue-Grey/300" mask="url(#mask-4)" fill="#90A4AE">
                        <g transform="translate(-38.000000, -5.000000)">
                            <rect x="0" y="0" width="100" height="52"></rect>
                        </g>
                    </g>
                    <rect id="Lite" fill-opacity="0.2" fill="#FFFFFF" mask="url(#mask-4)" x="0" y="31" width="24" height="16"></rect>
                </g>
                <circle id="Beep-Boop" fill="#FFE65C" cx="50" cy="8" r="8"></circle>
                <circle id="Beep-Boop" fill="#FFFFFF" cx="53" cy="5" r="3"></circle>
            </g>
            <g id="Face/Square-04" transform="translate(25.000000, 44.000000)">
                <mask id="mask-6" fill="white">
                    <use xlink:href="#path-5"></use>
                </mask>
                <use id="Shape" fill="#0076DE" fill-rule="evenodd" xlink:href="#path-5"></use>
                <g id="Color/08-Cyan/600" mask="url(#mask-6)" fill="#00ACC1" fill-rule="evenodd">
                    <g transform="translate(-2.000000, -2.000000)">
                        <rect x="0" y="0" width="134" height="124"></rect>
                    </g>
                </g>
                <g id="Texture/-None" mask="url(#mask-6)">
                    <g transform="translate(-1.000000, -1.000000)"></g>
                </g>
            </g>
            <g id="Mouth/Diagram" transform="translate(52.000000, 124.000000)">
                <rect id="Kiss-The-Robot-Beep-Boop" fill-opacity="0.2" fill="#000000" fill-rule="evenodd" x="4" y="4" width="68" height="24" rx="5"></rect>
                <path d="M10,8 L66,8 C67.1045695,8 68,8.8954305 68,10 L68,22 C68,23.1045695 67.1045695,24 66,24 L10,24 C8.8954305,24 8,23.1045695 8,22 L8,10 C8,8.8954305 8.8954305,8 10,8 Z" id="Kiss-The-Robot-Beep-Boop" fill-opacity="0.8" fill="#000000" fill-rule="evenodd"></path>
                <polyline id="Path-3" stroke="#4EFAC9" stroke-width="2" stroke-linecap="round" stroke-linejoin="round" points="9 17 20 17 22 13 25 20 29 12 31 21 34 10 37 20 40 17 55 17 58 13 60 20 63 17 67 17"></polyline>
            </g>
            <g id="Eyes/Frame-1" transform="translate(38.000000, 76.000000)">
                <rect id="Container" fill-opacity="0.8" fill="#000000" x="0" y="4" width="104" height="42" rx="4"></rect>
                <path d="M30.5638852,25 L35.4361148,25 C36.3276335,25 36.6509198,25.0928256 36.9768457,25.2671327 C37.3027716,25.4414398 37.5585602,25.6972284 37.7328673,26.0231543 C37.9071744,26.3490802 38,26.6723665 38,27.5638852 L38,33.4361148 C38,34.3276335 37.9071744,34.6509198 37.7328673,34.9768457 C37.5585602,35.3027716 37.3027716,35.5585602 36.9768457,35.7328673 C36.6509198,35.9071744 36.3276335,36 35.4361148,36 L30.5638852,36 C29.6723665,36 29.3490802,35.9071744 29.0231543,35.7328673 C28.6972284,35.5585602 28.4414398,35.3027716 28.2671327,34.9768457 C28.0928256,34.6509198 28,34.3276335 28,33.4361148 L28,27.5638852 C28,26.6723665 28.0928256,26.3490802 28.2671327,26.0231543 C28.4414398,25.6972284 28.6972284,25.4414398 29.0231543,25.2671327 C29.3490802,25.0928256 29.6723665,25 30.5638852,25 Z" id="Eye" fill="#8BDDFF"></path>
                <path d="M68.5638852,25 L73.4361148,25 C74.3276335,25 74.6509198,25.0928256 74.9768457,25.2671327 C75.3027716,25.4414398 75.5585602,25.6972284 75.7328673,26.0231543 C75.9071744,26.3490802 76,26.6723665 76,27.5638852 L76,33.4361148 C76,34.3276335 75.9071744,34.6509198 75.7328673,34.9768457 C75.5585602,35.3027716 75.3027716,35.5585602 74.9768457,35.7328673 C74.6509198,35.9071744 74.3276335,36 73.4361148,36 L68.5638852,36 C67.6723665,36 67.3490802,35.9071744 67.0231543,35.7328673 C66.6972284,35.5585602 66.4414398,35.3027716 66.2671327,34.9768457 C66.0928256,34.6509198 66,34.3276335 66,33.4361148 L66,27.5638852 C66,26.6723665 66.0928256,26.3490802 66.2671327,26.0231543 C66.4414398,25.6972284 66.6972284,25.4414398 67.0231543,25.2671327 C67.3490802,25.0928256 67.6723665,25 68.5638852,25 Z" id="Eye" fill="#8BDDFF"></path>
                <polygon id="Reflection" fill-opacity="0.4" fill="#FFFFFF" points="21 4 29 4 12 46 4 46"></polygon>
            </g>
        </g>
    </g>
</svg>